<svg width="272" height="312" viewBox="0 0 272 312" fill="none" xmlns="http://www.w3.org/2000/svg">
<path d="M33.6529 9C34.7779 6.75 34.7779 6.75 34.6529 0C28.8023 0 28.8023 0 18.0279 16.125C3.25277 40.3959 -3.7705 71.4012 2.03176 99.4922L2.65286 102C5.28072 112.894 9.75592 123.12 15.5471 132.685L16.9029 134.875C18.4156 137.331 19.9611 139.657 21.6529 142H23.6529C23.6529 144 23.6529 144 25.1138 146.164L27.0279 148.625C28.9263 151.102 28.9263 151.102 30.6528 153L30.6529 153H32.6529V155H34.6529V157H36.6529V159H38.6529V161C40.0279 162.625 40.0279 162.625 41.6529 164H43.6529V166H45.6529V168H47.6529V170H49.6529V172H51.6529C52.6529 175 52.6529 175 54.6568 177.609C73.5256 200.768 79.5981 227.063 82.6529 256.188C82.8991 258.594 83.1467 261 83.4068 263.404L83.6529 265.668C83.8967 268.154 84.2108 270.535 84.6529 273C88.2571 276.03 112.653 295 112.653 295C116.24 297.191 132.49 309.066 135.715 311.812C139.873 308.378 155.966 297.778 160.598 295C164.338 292.838 189.022 277.288 189.598 273C190.583 265.668 190.392 270.855 190.583 251.781C190.587 246.682 190.902 241.811 191.685 236.774L192.09 234.375C192.774 229.917 193.683 225.705 195.114 221.422C195.628 219.948 196.141 218.474 196.653 217C200.705 203.684 205.588 191.636 214.528 180.812L214.681 180.638C216.674 178.379 218.458 176.356 219.911 173.699L220.653 172H222.653V170H224.653V168H226.653V166H228.653V164H230.653C233.186 161.72 235.277 159.662 236.965 156.688L237.653 155H239.653V153H241.653V151H243.653L244.985 149.391L246.653 147C261.759 127.145 270.443 106.733 271.836 81.7031C272.406 54.7653 264.119 25.2287 245.653 5H243.653V3H241.653V1L237.653 0C237.506 3.74366 237.535 7.22299 238.098 10.9336C240.987 27.5518 240.579 44.4607 234.032 60.1641C224.545 79.6759 209.93 92.1447 189.526 99.3477L187.653 100C167.026 107.365 142.747 108.058 121.131 106.129C119.057 105.939 116.983 105.751 114.907 105.583C111.498 105.308 108.096 104.998 104.699 104.6C81.6992 101.51 59.773 91.2769 45.5005 72.6914C32.6959 54.0395 30.1857 30.9586 33.6529 9Z" fill="black"/>
</svg>
